<?xml version="1.0" standalone="no"?>
<svg xmlns:xlink="http://www.w3.org/1999/xlink" id="wave" style="transform:rotate(0deg); transition: 0.3s" viewBox="0 0 1440 490" version="1.1" xmlns="http://www.w3.org/2000/svg"><defs><linearGradient id="sw-gradient-0" x1="0" x2="0" y1="1" y2="0"><stop stop-color="rgba(228.105, 202.279, 35.496, 1)" offset="0%"/><stop stop-color="rgba(182.412, 182.57, 70.67, 1)" offset="100%"/></linearGradient></defs><path style="transform:translate(0, 0px); opacity:1" fill="url(#sw-gradient-0)" d="M0,98L60,155.2C120,212,240,327,360,383.8C480,441,600,441,720,400.2C840,359,960,278,1080,212.3C1200,147,1320,98,1440,106.2C1560,114,1680,180,1800,171.5C1920,163,2040,82,2160,73.5C2280,65,2400,131,2520,171.5C2640,212,2760,229,2880,245C3000,261,3120,278,3240,236.8C3360,196,3480,98,3600,89.8C3720,82,3840,163,3960,228.7C4080,294,4200,343,4320,343C4440,343,4560,294,4680,294C4800,294,4920,343,5040,302.2C5160,261,5280,131,5400,98C5520,65,5640,131,5760,130.7C5880,131,6000,65,6120,89.8C6240,114,6360,229,6480,253.2C6600,278,6720,212,6840,155.2C6960,98,7080,49,7200,40.8C7320,33,7440,65,7560,98C7680,131,7800,163,7920,171.5C8040,180,8160,163,8280,204.2C8400,245,8520,343,8580,392L8640,441L8640,490L8580,490C8520,490,8400,490,8280,490C8160,490,8040,490,7920,490C7800,490,7680,490,7560,490C7440,490,7320,490,7200,490C7080,490,6960,490,6840,490C6720,490,6600,490,6480,490C6360,490,6240,490,6120,490C6000,490,5880,490,5760,490C5640,490,5520,490,5400,490C5280,490,5160,490,5040,490C4920,490,4800,490,4680,490C4560,490,4440,490,4320,490C4200,490,4080,490,3960,490C3840,490,3720,490,3600,490C3480,490,3360,490,3240,490C3120,490,3000,490,2880,490C2760,490,2640,490,2520,490C2400,490,2280,490,2160,490C2040,490,1920,490,1800,490C1680,490,1560,490,1440,490C1320,490,1200,490,1080,490C960,490,840,490,720,490C600,490,480,490,360,490C240,490,120,490,60,490L0,490Z"/></svg>